/vscmnt/brussel_pixiu_data/_data_brussel/112/vsc11236/PredSimResults/SUBJ04opt3D/expIG/worker_06.mot
version=1
nRows=4
nColumns=50
inDegrees=yes
endheader
                time	         pelvis_tilt	         pelvis_list	     pelvis_rotation	           pelvis_tx	           pelvis_ty	           pelvis_tz	       hip_flexion_r	     hip_adduction_r	      hip_rotation_r	        knee_angle_r	       ankle_angle_r	         mtp_angle_r	       hip_flexion_l	     hip_adduction_l	      hip_rotation_l	        knee_angle_l	       ankle_angle_l	         mtp_angle_l	    lumbar_extension	      lumbar_bending	     lumbar_rotation	 ercspn_r/activation	 intobl_r/activation	 extobl_r/activation	    abd_r/activation	    add_r/activation	hamstrings_r/activation	bifemsh_r/activation	glut_max_r/activation	iliopsoas_r/activation	rect_fem_r/activation	  vasti_r/activation	gastroc_r/activation	 soleus_r/activation	tib_ant_r/activation	 ercspn_l/activation	 intobl_l/activation	 extobl_l/activation	    abd_l/activation	    add_l/activation	hamstrings_l/activation	bifemsh_l/activation	glut_max_l/activation	iliopsoas_l/activation	rect_fem_l/activation	  vasti_l/activation	gastroc_l/activation	 soleus_l/activation	tib_ant_l/activation	
          0.00000000	         -2.90849097	          0.33000758	          8.73371924	          0.00000000	          0.87698425	         -0.00900854	         31.10762168	         -3.33166215	        -10.04104538	        -12.20047430	          4.88746099	          0.24313576	        -13.66231949	         -0.86374939	         -7.78415262	        -10.03090240	         10.11148460	         27.36420773	        -13.17715080	         -2.43055283	         -8.60683893	          0.05202001	          0.21121772	          0.01507889	          0.01147061	          0.31395793	          0.06741286	          0.02538371	          0.02665923	          0.16529497	          0.02971534	          0.06359705	          0.01000563	          0.01000227	          0.35051014	          0.03623858	          0.01000081	          0.01000090	          0.04125755	          0.01000828	          0.02885582	          0.17138312	          0.01741642	          0.01205182	          0.01006559	          0.01000263	          0.24388575	          0.26687915	          0.01000073	
          0.01218894	         -2.98171895	          0.28494997	          8.49258794	          0.01710651	          0.87483190	         -0.00859088	         30.82050182	         -3.10353297	        -10.16033620	        -13.38305367	          4.55092665	          0.22720736	        -14.19548019	         -1.07201978	         -8.46126373	        -11.01405095	          9.49290740	         28.97852760	        -12.67089777	         -1.83992061	         -8.71270326	          0.04323745	          0.19383670	          0.01253317	          0.01728606	          0.26094967	          0.07275604	          0.02111179	          0.09938809	          0.13738546	          0.02469844	          0.06319885	          0.01741820	          0.02096198	          0.36870632	          0.05553575	          0.01000136	          0.01001956	          0.03429139	          0.01003401	          0.02401007	          0.14244962	          0.01447593	          0.01002465	          0.01000264	          0.01000453	          0.20270694	          0.24957208	          0.01000043	
          0.02437787	         -3.03962987	          0.18024456	          8.20785416	          0.03451275	          0.87285757	         -0.00810021	         30.37544671	         -2.85171787	        -10.24374643	        -14.38238160	          4.09485928	          0.22356988	        -14.58371624	         -1.36736941	         -9.16645169	        -12.31614873	          8.78946864	         30.59797950	        -12.14076649	         -1.17010203	         -8.77483672	          0.04301413	          0.16110844	          0.01041743	          0.06319437	          0.21691875	          0.06878793	          0.01756549	          0.08261001	          0.11418842	          0.02052867	          0.12077561	          0.01447786	          0.01742289	          0.41762567	          0.05432868	          0.01000044	          0.01000141	          0.02850143	          0.01000413	          0.01996703	          0.11840000	          0.01203189	          0.02118510	          0.01000936	          0.01000125	          0.16848059	          0.22333634	          0.01000068	
          0.03656681	         -3.08343453	          0.05230433	          7.87337335	          0.05196634	          0.87126885	         -0.00749017	         29.85794943	         -2.57929116	        -10.41294892	        -15.25306384	          3.58248133	          0.19691849	        -14.74196847	         -1.72495367	         -9.90112088	        -14.05643693	          7.93861140	         32.21483977	        -11.62583901	         -0.46798977	         -8.78834458	          0.05040956	          0.13390585	          0.01000172	          0.10683546	          0.21389878	          0.06853392	          0.01460772	          0.06866515	          0.09490814	          0.01706303	          0.19533309	          0.01203482	          0.01448166	          0.44741656	          0.08457658	          0.01000072	          0.01000138	          0.02368910	          0.01000635	          0.01663807	          0.09840977	          0.01000135	          0.01761025	          0.01000584	          0.01000186	          0.14003317	          0.18562801	          0.01000056	
